<?xml version="1.0" encoding="UTF-8" standalone="no"?>
<!-- Created with Inkscape (http://www.inkscape.org/) -->

<svg
   width="175mm"
   height="175mm"
   viewBox="0 0 175 175"
   version="1.1"
   id="svg7021"
   inkscape:export-filename="2021_Kotsakhura_Logo.svg"
   inkscape:export-xdpi="96"
   inkscape:export-ydpi="96"
   inkscape:version="1.3 (0e150ed6c4, 2023-07-21)"
   sodipodi:docname="gvh_logo_diff.svg"
   xmlns:inkscape="http://www.inkscape.org/namespaces/inkscape"
   xmlns:sodipodi="http://sodipodi.sourceforge.net/DTD/sodipodi-0.dtd"
   xmlns="http://www.w3.org/2000/svg"
   xmlns:svg="http://www.w3.org/2000/svg">
  <sodipodi:namedview
     id="namedview7023"
     pagecolor="#ffffff"
     bordercolor="#000000"
     borderopacity="0.25"
     inkscape:showpageshadow="2"
     inkscape:pageopacity="0.0"
     inkscape:pagecheckerboard="0"
     inkscape:deskcolor="#d1d1d1"
     inkscape:document-units="mm"
     showgrid="false"
     inkscape:zoom="0.71624579"
     inkscape:cx="68.412269"
     inkscape:cy="265.97015"
     inkscape:window-width="1920"
     inkscape:window-height="1011"
     inkscape:window-x="0"
     inkscape:window-y="0"
     inkscape:window-maximized="1"
     inkscape:current-layer="layer1" />
  <defs
     id="defs7018" />
  <g
     inkscape:label="Layer 1"
     inkscape:groupmode="layer"
     id="layer1">
    <path
       id="path10449"
       style="fill:#1e0050;fill-opacity:1;fill-rule:evenodd;stroke:none;stroke-width:0.352778"
       d="M 84.994295 12.500012 L 79.99305 12.834875 L 75.025395 13.503052 L 70.11355 14.500924 L 65.27922 15.825391 L 60.544625 17.469735 L 55.929919 19.426204 L 51.456291 21.687048 L 47.143892 24.240898 L 43.011845 27.077934 L 39.077718 30.184204 L 35.360632 33.546273 L 31.87609 37.14967 L 28.640112 40.976827 L 25.66665 45.012756 L 22.969657 49.236271 L 20.561019 53.632385 L 18.451587 58.178361 L 16.64963 62.856628 L 15.164966 67.643933 L 14.002763 72.519604 L 13.169222 77.461422 L 12.667444 82.448197 L 12.500012 87.458744 L 12.667444 92.467741 L 13.169222 97.454517 L 14.002763 102.39788 L 15.164966 107.27252 L 16.64963 112.05931 L 18.451587 116.73758 L 20.561019 121.28355 L 22.969657 125.67967 L 25.66665 129.90422 L 28.640112 133.93963 L 31.87609 137.76627 L 35.360632 141.36967 L 39.077718 144.73277 L 43.011845 147.83852 L 47.143892 150.67556 L 51.456291 153.22941 L 55.929919 155.48973 L 60.544625 157.44672 L 65.27922 159.09106 L 70.11355 160.41605 L 75.025395 161.41392 L 79.99305 162.08158 L 84.994295 162.41644 L 90.006392 162.41644 L 95.007638 162.08158 L 99.974259 161.41392 L 104.88662 160.41605 L 109.72043 159.09106 L 114.45555 157.44672 L 119.07077 155.48973 L 123.54336 153.22941 L 127.8568 150.67556 L 131.98884 147.83852 L 135.92245 144.73277 L 139.63954 141.36967 L 143.1246 137.76627 L 146.36058 133.93963 L 149.33352 129.90422 L 152.03051 125.67967 L 154.43967 121.28355 L 156.54962 116.73758 L 158.35054 112.05931 L 159.83572 107.27252 L 160.99741 102.39788 L 161.83147 97.454517 L 162.33273 92.467741 L 162.50016 87.458744 L 162.33273 82.448197 L 161.83147 77.461422 L 160.99741 72.519604 L 159.83572 67.643933 L 158.35054 62.856628 L 156.54962 58.178361 L 154.43967 53.632385 L 152.03051 49.236271 L 149.33352 45.012756 L 146.36058 40.976827 L 143.1246 37.14967 L 139.63954 33.546273 L 135.92245 30.184204 L 131.98884 27.077934 L 127.8568 24.240898 L 123.54336 21.687048 L 119.07077 19.426204 L 114.45555 17.469735 L 109.72043 15.825391 L 104.88662 14.500924 L 99.974259 13.503052 L 95.007638 12.834875 L 90.006392 12.500012 L 84.994295 12.500012 z M 61.50684 29.901534 L 66.995394 31.214115 L 72.54906 32.215088 L 78.150785 32.900834 L 82.820268 33.228979 L 87.500085 33.33905 L 92.18042 33.228979 L 96.849386 32.900834 L 102.45111 32.215088 L 108.00529 31.214115 L 113.49385 29.901534 L 113.79409 29.914453 L 114.03335 30.097388 L 114.12327 30.384192 L 114.06022 30.627588 L 113.88711 30.808972 L 110.86042 32.546334 L 107.71849 34.068722 L 104.47838 35.36735 L 101.1561 36.437569 L 97.767676 37.273177 L 94.338428 38.120671 L 90.978426 39.206392 L 87.703174 40.527242 L 87.500085 40.571684 L 87.29648 40.527242 L 84.021228 39.206392 L 80.661743 38.120671 L 77.233529 37.273177 L 73.844071 36.437569 L 70.521277 35.36735 L 67.281681 34.068722 L 64.140271 32.546334 L 61.112549 30.808972 L 60.939433 30.627588 L 60.876904 30.384192 L 60.967338 30.097388 L 61.206083 29.914453 L 61.50684 29.901534 z M 63.549609 39.578463 L 63.842098 39.750545 L 63.957336 40.070422 L 63.879822 40.33759 L 62.577059 42.624272 L 61.494954 45.023608 L 60.643844 47.513379 L 60.029928 50.072396 L 59.659408 52.678438 L 59.535384 55.307735 L 59.663025 57.417684 L 60.044397 59.49766 L 60.673816 61.515625 L 61.54198 63.443673 L 62.636487 65.253898 L 63.832796 66.793339 L 65.193437 68.191703 L 66.700838 69.429354 L 68.336397 70.492338 L 70.080994 71.36567 L 71.613717 71.946513 L 71.872099 72.028678 L 75.900793 73.352629 L 79.878328 74.82334 L 83.718404 76.402572 L 87.500085 78.117196 L 91.250244 80.069531 L 94.849508 82.288517 L 97.510327 84.175741 L 100.06159 86.208175 L 102.19428 88.198751 L 104.11768 90.393449 L 105.81163 92.768498 L 107.25909 95.30271 L 108.44661 97.967664 L 109.36025 100.73855 L 109.47135 101.15248 L 110.02946 103.80658 L 110.33848 106.50048 L 110.33952 106.53458 L 110.2372 106.83792 L 109.9721 107.01672 L 109.65326 106.99864 L 109.41038 106.7909 L 107.15057 103.31049 L 104.63341 100.0125 L 101.87337 96.915015 L 98.886471 94.03457 L 95.68925 91.390287 L 93.06357 89.502547 L 90.330404 87.77242 L 87.500085 86.208175 L 84.387097 84.667183 L 80.841577 83.05953 L 77.240247 81.578483 L 73.510242 80.199239 L 69.732694 78.957454 L 69.365792 78.845317 L 68.562223 78.603471 L 63.826595 77.313627 L 59.03774 76.238241 L 55.843103 75.645512 L 52.632446 75.147351 L 52.293966 75.221248 L 52.084676 75.497717 L 51.326583 78.431905 L 50.811886 81.416736 L 50.578308 83.807804 L 50.500277 86.208175 L 50.669259 92.235714 L 51.175688 98.243099 L 52.01853 104.21328 L 53.194169 110.12764 L 54.70002 115.96656 L 56.5304 121.71195 L 56.966032 122.93306 L 59.035673 128.19476 L 61.318221 133.21461 L 62.294906 135.17263 L 62.737773 136.02891 L 65.54432 141.06374 L 68.617 145.94148 L 71.946513 150.64662 L 72.046248 150.94634 L 71.913957 151.28482 L 71.588395 151.4445 L 71.240096 151.34167 L 67.131303 147.95376 L 63.239034 144.31884 L 59.576725 140.45293 L 58.477568 139.19357 L 55.948523 136.0997 L 54.903625 134.73183 L 53.226208 132.41052 L 50.284786 127.90434 L 47.628617 123.224 L 45.268038 118.38761 L 43.211316 113.41478 L 41.467236 108.32362 L 40.043034 103.13376 L 38.942326 97.866378 L 38.337195 93.998914 L 37.883476 90.110262 L 37.582719 86.208175 L 37.580135 86.16735 L 37.500037 83.338582 L 37.666951 79.252527 L 38.167696 75.193343 L 38.998653 71.189453 L 40.154138 67.266695 L 41.625883 63.450391 L 43.404586 59.767411 L 45.478361 56.243595 L 47.833256 52.899613 L 50.453768 49.759753 L 53.32181 46.844169 L 56.418778 44.173531 L 59.723486 41.764893 L 63.214229 39.633757 L 63.549609 39.578463 z M 111.45004 39.578463 L 111.78646 39.633757 L 115.27617 41.764893 L 118.58139 44.173531 L 121.67836 46.844686 L 124.5464 49.759753 L 127.1664 52.899613 L 129.52181 56.243595 L 131.59559 59.767411 L 133.3748 63.450391 L 134.84655 67.266695 L 136.00152 71.189453 L 136.83247 75.193343 L 137.33322 79.252527 L 137.50013 83.338582 L 137.42055 86.16735 L 137.41745 86.208691 L 137.05365 90.006392 L 136.40046 93.76637 L 135.46357 97.465369 L 134.24659 101.08117 L 132.75779 104.59413 L 131.00441 107.98462 L 128.99884 111.23094 L 126.79743 114.25452 L 124.37639 117.10551 L 121.97447 119.55498 L 119.4108 121.83287 L 119.05992 121.94656 L 118.7266 121.7905 L 118.59121 121.44737 L 118.61912 121.28459 L 120.4035 115.60431 L 121.87266 109.83464 L 123.01936 103.99159 L 123.84154 98.093754 L 124.33556 92.160266 L 124.50093 86.208691 L 124.44047 84.496651 L 124.26063 82.79443 L 123.99036 81.241553 L 123.28136 78.588485 L 122.28091 76.032568 L 120.99882 73.603776 L 119.45266 71.334664 L 117.66259 69.253654 L 115.64979 67.386584 L 113.43959 65.75671 L 112.88355 65.40376 L 112.70992 65.221342 L 112.64687 64.977946 L 112.7249 64.709745 L 113.74138 62.8804 L 114.53254 60.9446 L 115.04879 59.103886 L 115.3604 57.216663 L 115.46479 55.307218 L 115.34076 52.678438 L 114.97076 50.072396 L 114.35684 47.513379 L 113.50573 45.023608 L 112.42363 42.624272 L 111.12087 40.33759 L 111.04335 40.070422 L 111.15859 39.750545 L 111.45004 39.578463 z " />
  </g>
</svg>
