<?xml version="1.0" encoding="UTF-8" standalone="no"?>
<svg
   xml:space="preserve"
   viewBox="0 0 24 24"
   version="1.1"
   id="svg3"
   sodipodi:docname="facebook.svg"
   inkscape:export-filename="facebook.svg"
   inkscape:export-xdpi="96"
   inkscape:export-ydpi="96"
   width="24"
   height="24"
   inkscape:version="1.3 (0e150ed6c4, 2023-07-21)"
   xmlns:inkscape="http://www.inkscape.org/namespaces/inkscape"
   xmlns:sodipodi="http://sodipodi.sourceforge.net/DTD/sodipodi-0.dtd"
   xmlns="http://www.w3.org/2000/svg"
   xmlns:svg="http://www.w3.org/2000/svg"><defs
   id="defs3" /><sodipodi:namedview
   id="namedview3"
   pagecolor="#ffffff"
   bordercolor="#000000"
   borderopacity="0.25"
   inkscape:showpageshadow="2"
   inkscape:pageopacity="0.0"
   inkscape:pagecheckerboard="0"
   inkscape:deskcolor="#d1d1d1"
   labelstyle="below"
   inkscape:zoom="33.541667"
   inkscape:cx="11.985093"
   inkscape:cy="12"
   inkscape:window-width="1920"
   inkscape:window-height="1011"
   inkscape:window-x="0"
   inkscape:window-y="0"
   inkscape:window-maximized="1"
   inkscape:current-layer="svg3" />&#10;  <linearGradient
   id="a"
   x1="-277.375"
   x2="-277.375"
   y1="406.60181"
   y2="407.5726"
   gradientTransform="matrix(24,0,0,-23.86668,6669.0006,9727.4004)"
   gradientUnits="userSpaceOnUse">&#10;    <stop
   offset="0"
   stop-color="#0062e0"
   id="stop1" />&#10;    <stop
   offset="1"
   stop-color="#19afff"
   id="stop2" />&#10;  </linearGradient>&#10;  <path
   fill="url(#a)"
   d="M 10.02,23.88 C 4.32,22.86 0,17.94 0,12 0,5.4 5.4,0 12,0 c 6.6,0 12,5.4 12,12 0,5.94 -4.32,10.86 -10.02,11.88 l -0.66,-0.54 h -2.64 z"
   id="path2"
   style="fill:#000000;stroke-width:0.6" />&#10;  <path
   fill="#ffffff"
   d="M 16.68,15.36 17.22,12 H 14.04 V 9.66 c 0,-0.96 0.36,-1.68 1.8,-1.68 H 17.4 V 4.92 C 16.56,4.8 15.6,4.68 14.76,4.68 12,4.68 10.08,6.36 10.08,9.36 V 12 h -3 v 3.36 h 3 v 8.46 c 0.66,0.12 1.32,0.18 1.98,0.18 0.66,0 1.32,-0.06 1.98,-0.18 v -8.46 z"
   id="path3"
   style="stroke-width:0.6" />&#10;</svg>
