<?xml version="1.0" encoding="UTF-8" standalone="no"?>
<!-- Created with Inkscape (http://www.inkscape.org/) -->

<svg
   width="175mm"
   height="175mm"
   viewBox="0 0 175 175"
   version="1.1"
   id="svg7021"
   inkscape:export-filename="2021_Kotsakhura_Logo.svg"
   inkscape:export-xdpi="96"
   inkscape:export-ydpi="96"
   inkscape:version="1.2.2 (732a01da63, 2022-12-09)"
   sodipodi:docname="GVH_LOGO - Copy.svg"
   xmlns:inkscape="http://www.inkscape.org/namespaces/inkscape"
   xmlns:sodipodi="http://sodipodi.sourceforge.net/DTD/sodipodi-0.dtd"
   xmlns="http://www.w3.org/2000/svg"
   xmlns:svg="http://www.w3.org/2000/svg">
  <sodipodi:namedview
     id="namedview7023"
     pagecolor="#ffffff"
     bordercolor="#000000"
     borderopacity="0.25"
     inkscape:showpageshadow="2"
     inkscape:pageopacity="0.0"
     inkscape:pagecheckerboard="0"
     inkscape:deskcolor="#d1d1d1"
     inkscape:document-units="mm"
     showgrid="false"
     inkscape:zoom="0.50646226"
     inkscape:cx="-201.39704"
     inkscape:cy="571.61219"
     inkscape:window-width="1920"
     inkscape:window-height="991"
     inkscape:window-x="-9"
     inkscape:window-y="-9"
     inkscape:window-maximized="1"
     inkscape:current-layer="layer1" />
  <defs
     id="defs7018" />
  <g
     inkscape:label="Layer 1"
     inkscape:groupmode="layer"
     id="layer1">
    <g
       id="g6766"
       transform="matrix(0.35277776,0,0,-0.35277778,60.876808,30.384352)">
      <path
         d="m 0,0 0.257,0.813 0.677,0.519 0.852,0.037 15.558,-3.721 15.743,-2.837 15.878,-1.944 13.237,-0.931 13.266,-0.311 13.267,0.311 13.234,0.931 15.88,1.944 15.744,2.837 15.557,3.721 0.852,-0.037 0.678,-0.519 0.255,-0.813 -0.179,-0.689 -0.49,-0.515 -8.58,-4.925 -8.906,-4.315 -9.185,-3.681 -9.417,-3.034 -9.606,-2.369 -9.72,-2.401 -9.524,-3.079 -9.285,-3.744 -0.575,-0.125 -0.578,0.125 -9.284,3.744 -9.523,3.079 -9.718,2.401 -9.607,2.369 -9.419,3.034 -9.183,3.681 -8.905,4.315 -8.582,4.925 -0.491,0.515 z"
         style="fill:#ffffff;fill-opacity:1;fill-rule:evenodd;stroke:none"
         id="path6768" />
    </g>
    <g
       id="g6770"
       transform="matrix(0.35277776,0,0,-0.35277778,63.214308,39.633585)">
      <path
         d="m 0,0 0.95,0.156 0.829,-0.488 0.327,-0.907 -0.22,-0.757 -3.693,-6.482 -3.067,-6.801 -2.413,-7.058 -1.74,-7.254 -1.05,-7.387 -0.351,-7.452 0.362,-5.981 1.081,-5.896 1.784,-5.721 2.461,-5.465 3.102,-5.131 3.391,-4.365 3.857,-3.963 4.273,-3.509 4.637,-3.013 4.944,-2.475 4.346,-1.647 0.732,-0.232 11.42,-3.754 11.275,-4.169 10.885,-4.476 10.72,-4.861 10.63,-5.534 10.202,-6.29 7.543,-5.349 7.232,-5.762 6.046,-5.642 5.451,-6.221 4.802,-6.733 4.104,-7.183 3.365,-7.554 2.591,-7.855 0.315,-1.173 1.582,-7.524 0.876,-7.636 0.002,-0.097 -0.29,-0.859 -0.751,-0.507 -0.904,0.051 -0.688,0.589 -6.407,9.866 -7.134,9.348 -7.825,8.781 -8.466,8.164 -9.063,7.496 -7.443,5.351 -7.747,4.904 -8.023,4.434 -8.824,4.368 -10.051,4.558 -10.208,4.198 -10.573,3.909 -10.709,3.52 -1.04,0.318 -2.278,0.686 -13.424,3.656 -13.574,3.048 -9.056,1.681 -9.101,1.412 -0.96,-0.21 -0.593,-0.783 -2.148,-8.317 -1.459,-8.461 -0.662,-6.778 -0.222,-6.805 0.479,-17.085 1.436,-17.03 2.389,-16.923 3.333,-16.765 4.268,-16.551 5.188,-16.286 1.235,-3.461 5.867,-14.916 6.471,-14.229 2.768,-5.551 1.255,-2.426 7.956,-14.272 8.709,-13.828 9.438,-13.337 0.283,-0.85 -0.374,-0.959 -0.924,-0.453 -0.987,0.292 -11.646,9.604 -11.034,10.303 -10.381,10.959 -3.116,3.57 -7.169,8.77 -2.962,3.877 -4.754,6.58 -8.338,12.773 -7.53,13.268 -6.692,13.709 -5.829,14.097 -4.944,14.431 -4.038,14.712 -3.119,14.93 -1.716,10.964 -1.286,11.022 -0.853,11.061 -0.007,0.116 -0.227,8.019 0.474,11.582 1.419,11.506 2.355,11.35 3.275,11.12 4.172,10.817 5.043,10.44 5.878,9.99 6.675,9.479 7.429,8.9 8.13,8.264 8.778,7.571 9.368,6.828 z"
         style="fill:#ffffff;fill-opacity:1;fill-rule:evenodd;stroke:none"
         id="path6772" />
    </g>
    <g
       id="g6774"
       transform="matrix(0.35277776,0,0,-0.35277778,111.04343,40.070606)">
      <path
         d="m 0,0 0.326,0.907 0.827,0.488 0.953,-0.156 9.893,-6.041 9.368,-6.828 8.779,-7.572 8.13,-8.263 7.427,-8.901 6.676,-9.479 5.879,-9.989 5.043,-10.44 4.172,-10.817 3.274,-11.12 2.356,-11.35 1.419,-11.506 0.474,-11.582 -0.226,-8.019 -0.009,-0.117 -1.032,-10.766 -1.851,-10.658 -2.656,-10.485 -3.45,-10.25 -4.22,-9.958 -4.97,-9.61 -5.686,-9.202 -6.239,-8.571 -6.863,-8.082 -6.809,-6.943 -7.267,-6.457 -0.995,-0.323 -0.945,0.443 -0.384,0.972 0.079,0.462 5.059,16.101 4.164,16.356 3.251,16.563 2.33,16.718 1.401,16.819 0.468,16.871 -0.17,4.853 -0.51,4.825 -0.766,4.402 -2.01,7.52 -2.837,7.246 -3.634,6.885 -4.382,6.432 -5.074,5.898 -5.706,5.293 -6.265,4.62 -1.576,1.001 -0.493,0.516 -0.179,0.691 0.221,0.76 2.882,5.185 2.243,5.488 1.463,5.218 0.884,5.349 0.295,5.412 -0.351,7.452 -1.049,7.387 -1.74,7.254 -2.413,7.058 -3.067,6.801 -3.694,6.482 z"
         style="fill:#ffffff;fill-opacity:1;fill-rule:evenodd;stroke:none"
         id="path6776" />
    </g>
    <g
       id="g6782"
       transform="matrix(0.35277776,0,0,-0.35277778,60.876808,30.384352)">
      <path
         d="m 0,0 0.257,0.813 0.677,0.519 0.852,0.037 15.558,-3.721 15.743,-2.837 15.878,-1.944 13.237,-0.931 13.266,-0.311 13.267,0.311 13.234,0.931 15.88,1.944 15.744,2.837 15.557,3.721 0.852,-0.037 0.678,-0.519 0.255,-0.813 -0.179,-0.689 -0.49,-0.515 -8.58,-4.925 -8.906,-4.315 -9.185,-3.681 -9.417,-3.034 -9.606,-2.369 -9.72,-2.401 -9.524,-3.079 -9.285,-3.744 -0.575,-0.125 -0.578,0.125 -9.284,3.744 -9.523,3.079 -9.718,2.401 -9.607,2.369 -9.419,3.034 -9.183,3.681 -8.905,4.315 -8.582,4.925 -0.491,0.515 z"
         style="fill:#ffffff;fill-opacity:1;fill-rule:evenodd;stroke:none"
         id="path6784" />
    </g>
    <g
       id="g6786"
       transform="matrix(0.35277776,0,0,-0.35277778,63.214308,39.633585)">
      <path
         d="m 0,0 0.95,0.156 0.829,-0.488 0.327,-0.907 -0.22,-0.757 -3.693,-6.482 -3.067,-6.801 -2.413,-7.058 -1.74,-7.254 -1.05,-7.387 -0.351,-7.452 0.362,-5.981 1.081,-5.896 1.784,-5.721 2.461,-5.465 3.102,-5.131 3.391,-4.365 3.857,-3.963 4.273,-3.509 4.637,-3.013 4.944,-2.475 4.346,-1.647 0.732,-0.232 11.42,-3.754 11.275,-4.169 10.885,-4.476 10.72,-4.861 10.63,-5.534 10.202,-6.29 7.543,-5.349 7.232,-5.762 6.046,-5.642 5.451,-6.221 4.802,-6.733 4.104,-7.183 3.365,-7.554 2.591,-7.855 0.315,-1.173 1.582,-7.524 0.876,-7.636 0.002,-0.097 -0.29,-0.859 -0.751,-0.507 -0.904,0.051 -0.688,0.589 -6.407,9.866 -7.134,9.348 -7.825,8.781 -8.466,8.164 -9.063,7.496 -7.443,5.351 -7.747,4.904 -8.023,4.434 -8.824,4.368 -10.051,4.558 -10.208,4.198 -10.573,3.909 -10.709,3.52 -1.04,0.318 -2.278,0.686 -13.424,3.656 -13.574,3.048 -9.056,1.681 -9.101,1.412 -0.96,-0.21 -0.593,-0.783 -2.148,-8.317 -1.459,-8.461 -0.662,-6.778 -0.222,-6.805 0.479,-17.085 1.436,-17.03 2.389,-16.923 3.333,-16.765 4.268,-16.551 5.188,-16.286 1.235,-3.461 5.867,-14.916 6.471,-14.229 2.768,-5.551 1.255,-2.426 7.956,-14.272 8.709,-13.828 9.438,-13.337 0.283,-0.85 -0.374,-0.959 -0.924,-0.453 -0.987,0.292 -11.646,9.604 -11.034,10.303 -10.381,10.959 -3.116,3.57 -7.169,8.77 -2.962,3.877 -4.754,6.58 -8.338,12.773 -7.53,13.268 -6.692,13.709 -5.829,14.097 -4.944,14.431 -4.038,14.712 -3.119,14.93 -1.716,10.964 -1.286,11.022 -0.853,11.061 -0.007,0.116 -0.227,8.019 0.474,11.582 1.419,11.506 2.355,11.35 3.275,11.12 4.172,10.817 5.043,10.44 5.878,9.99 6.675,9.479 7.429,8.9 8.13,8.264 8.778,7.571 9.368,6.828 z"
         style="fill:#ffffff;fill-opacity:1;fill-rule:evenodd;stroke:none"
         id="path6788" />
    </g>
    <g
       id="g6790"
       transform="matrix(0.35277776,0,0,-0.35277778,111.04343,40.070606)">
      <path
         d="m 0,0 0.326,0.907 0.827,0.488 0.953,-0.156 9.893,-6.041 9.368,-6.828 8.779,-7.572 8.13,-8.263 7.427,-8.901 6.676,-9.479 5.879,-9.989 5.043,-10.44 4.172,-10.817 3.274,-11.12 2.356,-11.35 1.419,-11.506 0.474,-11.582 -0.226,-8.019 -0.009,-0.117 -1.032,-10.766 -1.851,-10.658 -2.656,-10.485 -3.45,-10.25 -4.22,-9.958 -4.97,-9.61 -5.686,-9.202 -6.239,-8.571 -6.863,-8.082 -6.809,-6.943 -7.267,-6.457 -0.995,-0.323 -0.945,0.443 -0.384,0.972 0.079,0.462 5.059,16.101 4.164,16.356 3.251,16.563 2.33,16.718 1.401,16.819 0.468,16.871 -0.17,4.853 -0.51,4.825 -0.766,4.402 -2.01,7.52 -2.837,7.246 -3.634,6.885 -4.382,6.432 -5.074,5.898 -5.706,5.293 -6.265,4.62 -1.576,1.001 -0.493,0.516 -0.179,0.691 0.221,0.76 2.882,5.185 2.243,5.488 1.463,5.218 0.884,5.349 0.295,5.412 -0.351,7.452 -1.049,7.387 -1.74,7.254 -2.413,7.058 -3.067,6.801 -3.694,6.482 z"
         style="fill:#ffffff;fill-opacity:1;fill-rule:evenodd;stroke:none"
         id="path6792" />
    </g>
    <g
       id="g6798"
       transform="matrix(0.35277776,0,0,-0.35277778,60.876808,30.384352)">
      <path
         d="m 0,0 0.257,0.813 0.677,0.519 0.852,0.037 15.558,-3.721 15.743,-2.837 15.878,-1.944 13.237,-0.931 13.266,-0.311 13.267,0.311 13.234,0.931 15.88,1.944 15.744,2.837 15.557,3.721 0.852,-0.037 0.678,-0.519 0.255,-0.813 -0.179,-0.689 -0.49,-0.515 -8.58,-4.925 -8.906,-4.315 -9.185,-3.681 -9.417,-3.034 -9.606,-2.369 -9.72,-2.401 -9.524,-3.079 -9.285,-3.744 -0.575,-0.125 -0.578,0.125 -9.284,3.744 -9.523,3.079 -9.718,2.401 -9.607,2.369 -9.419,3.034 -9.183,3.681 -8.905,4.315 -8.582,4.925 -0.491,0.515 z"
         style="fill:#ffffff;fill-opacity:1;fill-rule:evenodd;stroke:none"
         id="path6800" />
    </g>
    <g
       id="g6802"
       transform="matrix(0.35277776,0,0,-0.35277778,63.214308,39.633585)">
      <path
         d="m 0,0 0.95,0.156 0.829,-0.488 0.327,-0.907 -0.22,-0.757 -3.693,-6.482 -3.067,-6.801 -2.413,-7.058 -1.74,-7.254 -1.05,-7.387 -0.351,-7.452 0.362,-5.981 1.081,-5.896 1.784,-5.721 2.461,-5.465 3.102,-5.131 3.391,-4.365 3.857,-3.963 4.273,-3.509 4.637,-3.013 4.944,-2.475 4.346,-1.647 0.732,-0.232 11.42,-3.754 11.275,-4.169 10.885,-4.476 10.72,-4.861 10.63,-5.534 10.202,-6.29 7.543,-5.349 7.232,-5.762 6.046,-5.642 5.451,-6.221 4.802,-6.733 4.104,-7.183 3.365,-7.554 2.591,-7.855 0.315,-1.173 1.582,-7.524 0.876,-7.636 0.002,-0.097 -0.29,-0.859 -0.751,-0.507 -0.904,0.051 -0.688,0.589 -6.407,9.866 -7.134,9.348 -7.825,8.781 -8.466,8.164 -9.063,7.496 -7.443,5.351 -7.747,4.904 -8.023,4.434 -8.824,4.368 -10.051,4.558 -10.208,4.198 -10.573,3.909 -10.709,3.52 -1.04,0.318 -2.278,0.686 -13.424,3.656 -13.574,3.048 -9.056,1.681 -9.101,1.412 -0.96,-0.21 -0.593,-0.783 -2.148,-8.317 -1.459,-8.461 -0.662,-6.778 -0.222,-6.805 0.479,-17.085 1.436,-17.03 2.389,-16.923 3.333,-16.765 4.268,-16.551 5.188,-16.286 1.235,-3.461 5.867,-14.916 6.471,-14.229 2.768,-5.551 1.255,-2.426 7.956,-14.272 8.709,-13.828 9.438,-13.337 0.283,-0.85 -0.374,-0.959 -0.924,-0.453 -0.987,0.292 -11.646,9.604 -11.034,10.303 -10.381,10.959 -3.116,3.57 -7.169,8.77 -2.962,3.877 -4.754,6.58 -8.338,12.773 -7.53,13.268 -6.692,13.709 -5.829,14.097 -4.944,14.431 -4.038,14.712 -3.119,14.93 -1.716,10.964 -1.286,11.022 -0.853,11.061 -0.007,0.116 -0.227,8.019 0.474,11.582 1.419,11.506 2.355,11.35 3.275,11.12 4.172,10.817 5.043,10.44 5.878,9.99 6.675,9.479 7.429,8.9 8.13,8.264 8.778,7.571 9.368,6.828 z"
         style="fill:#ffffff;fill-opacity:1;fill-rule:evenodd;stroke:none"
         id="path6804" />
    </g>
    <g
       id="g6806"
       transform="matrix(0.35277776,0,0,-0.35277778,111.04343,40.070606)">
      <path
         d="m 0,0 0.326,0.907 0.827,0.488 0.953,-0.156 9.893,-6.041 9.368,-6.828 8.779,-7.572 8.13,-8.263 7.427,-8.901 6.676,-9.479 5.879,-9.989 5.043,-10.44 4.172,-10.817 3.274,-11.12 2.356,-11.35 1.419,-11.506 0.474,-11.582 -0.226,-8.019 -0.009,-0.117 -1.032,-10.766 -1.851,-10.658 -2.656,-10.485 -3.45,-10.25 -4.22,-9.958 -4.97,-9.61 -5.686,-9.202 -6.239,-8.571 -6.863,-8.082 -6.809,-6.943 -7.267,-6.457 -0.995,-0.323 -0.945,0.443 -0.384,0.972 0.079,0.462 5.059,16.101 4.164,16.356 3.251,16.563 2.33,16.718 1.401,16.819 0.468,16.871 -0.17,4.853 -0.51,4.825 -0.766,4.402 -2.01,7.52 -2.837,7.246 -3.634,6.885 -4.382,6.432 -5.074,5.898 -5.706,5.293 -6.265,4.62 -1.576,1.001 -0.493,0.516 -0.179,0.691 0.221,0.76 2.882,5.185 2.243,5.488 1.463,5.218 0.884,5.349 0.295,5.412 -0.351,7.452 -1.049,7.387 -1.74,7.254 -2.413,7.058 -3.067,6.801 -3.694,6.482 z"
         style="fill:#ffffff;fill-opacity:1;fill-rule:evenodd;stroke:none"
         id="path6808" />
    </g>
    <g
       id="g6810"
       transform="matrix(0.35277776,0,0,-0.35277778,162.5004,87.458575)"
       style="fill:#1e0050;fill-opacity:1">
      <g
         id="g10447"
         style="fill:#1e0050;fill-opacity:1">
        <path
           d="m 0,0 -0.476,-14.199 -1.42,-14.136 -2.364,-14.012 -3.294,-13.819 -4.21,-13.569 -5.105,-13.261 -5.981,-12.886 -6.829,-12.461 -7.644,-11.976 -8.428,-11.439 -9.173,-10.847 -9.879,-10.214 -10.536,-9.533 -11.151,-8.804 -11.713,-8.042 -12.227,-7.239 -12.678,-6.407 -13.082,-5.548 -13.422,-4.66 -13.703,-3.756 -13.924,-2.829 -14.079,-1.893 -14.177,-0.949 h -14.207 l -14.177,0.949 -14.081,1.893 -13.924,2.829 -13.703,3.756 -13.422,4.66 -13.08,5.548 -12.682,6.407 -12.224,7.239 -11.713,8.042 -11.151,8.804 -10.537,9.533 -9.877,10.214 -9.174,10.847 -8.428,11.439 -7.645,11.976 -6.828,12.461 -5.98,12.886 -5.107,13.261 -4.209,13.569 -3.294,13.819 -2.363,14.012 -1.422,14.136 -0.475,14.199 0.475,14.202 1.422,14.136 2.363,14.009 3.294,13.821 4.209,13.57 5.107,13.261 5.98,12.886 6.828,12.461 7.645,11.973 8.428,11.441 9.174,10.848 9.877,10.214 10.537,9.531 11.151,8.805 11.713,8.041 12.224,7.24 12.682,6.409 13.08,5.546 13.422,4.661 13.703,3.754 13.924,2.829 14.081,1.894 14.177,0.949 h 14.207 l 14.177,-0.949 14.079,-1.894 13.924,-2.829 13.703,-3.754 13.422,-4.661 13.082,-5.546 12.678,-6.409 12.227,-7.24 11.713,-8.041 11.151,-8.805 10.536,-9.531 9.879,-10.214 9.173,-10.848 8.428,-11.441 7.644,-11.973 6.829,-12.461 5.981,-12.886 5.105,-13.261 4.21,-13.57 3.294,-13.821 2.364,-14.009 1.42,-14.136 z"
           style="fill:#1e0050;fill-opacity:1;fill-rule:evenodd;stroke:none"
           id="path10449" />
      </g>
    </g>
    <g
       id="g6814"
       transform="matrix(0.35277776,0,0,-0.35277778,60.876808,30.384352)">
      <path
         d="m 0,0 0.257,0.813 0.677,0.519 0.852,0.037 15.558,-3.721 15.743,-2.837 15.878,-1.944 13.237,-0.931 13.266,-0.311 13.267,0.311 13.234,0.931 15.88,1.944 15.744,2.837 15.557,3.721 0.852,-0.037 0.678,-0.519 0.255,-0.813 -0.179,-0.689 -0.49,-0.515 -8.58,-4.925 -8.906,-4.315 -9.185,-3.681 -9.417,-3.034 -9.606,-2.369 -9.72,-2.401 -9.524,-3.079 -9.285,-3.744 -0.575,-0.125 -0.578,0.125 -9.284,3.744 -9.523,3.079 -9.718,2.401 -9.607,2.369 -9.419,3.034 -9.183,3.681 -8.905,4.315 -8.582,4.925 -0.491,0.515 z"
         style="fill:#ffffff;fill-opacity:1;fill-rule:evenodd;stroke:none"
         id="path6816" />
    </g>
    <g
       id="g6818"
       transform="matrix(0.35277776,0,0,-0.35277778,63.214308,39.633585)">
      <path
         d="m 0,0 0.95,0.156 0.829,-0.488 0.327,-0.907 -0.22,-0.757 -3.693,-6.482 -3.067,-6.801 -2.413,-7.058 -1.74,-7.254 -1.05,-7.387 -0.351,-7.452 0.362,-5.981 1.081,-5.896 1.784,-5.721 2.461,-5.465 3.102,-5.131 3.391,-4.365 3.857,-3.963 4.273,-3.509 4.637,-3.013 4.944,-2.475 4.346,-1.647 0.732,-0.232 11.42,-3.754 11.275,-4.169 10.885,-4.476 10.72,-4.861 10.63,-5.534 10.202,-6.29 7.543,-5.349 7.232,-5.762 6.046,-5.642 5.451,-6.221 4.802,-6.733 4.104,-7.183 3.365,-7.554 2.591,-7.855 0.315,-1.173 1.582,-7.524 0.876,-7.636 0.002,-0.097 -0.29,-0.859 -0.751,-0.507 -0.904,0.051 -0.688,0.589 -6.407,9.866 -7.134,9.348 -7.825,8.781 -8.466,8.164 -9.063,7.496 -7.443,5.351 -7.747,4.904 -8.023,4.434 -8.824,4.368 -10.051,4.558 -10.208,4.198 -10.573,3.909 -10.709,3.52 -1.04,0.318 -2.278,0.686 -13.424,3.656 -13.574,3.048 -9.056,1.681 -9.101,1.412 -0.96,-0.21 -0.593,-0.783 -2.148,-8.317 -1.459,-8.461 -0.662,-6.778 -0.222,-6.805 0.479,-17.085 1.436,-17.03 2.389,-16.923 3.333,-16.765 4.268,-16.551 5.188,-16.286 1.235,-3.461 5.867,-14.916 6.471,-14.229 2.768,-5.551 1.255,-2.426 7.956,-14.272 8.709,-13.828 9.438,-13.337 0.283,-0.85 -0.374,-0.959 -0.924,-0.453 -0.987,0.292 -11.646,9.604 -11.034,10.303 -10.381,10.959 -3.116,3.57 -7.169,8.77 -2.962,3.877 -4.754,6.58 -8.338,12.773 -7.53,13.268 -6.692,13.709 -5.829,14.097 -4.944,14.431 -4.038,14.712 -3.119,14.93 -1.716,10.964 -1.286,11.022 -0.853,11.061 -0.007,0.116 -0.227,8.019 0.474,11.582 1.419,11.506 2.355,11.35 3.275,11.12 4.172,10.817 5.043,10.44 5.878,9.99 6.675,9.479 7.429,8.9 8.13,8.264 8.778,7.571 9.368,6.828 z"
         style="fill:#ffffff;fill-opacity:1;fill-rule:evenodd;stroke:none"
         id="path6820" />
    </g>
    <g
       id="g6822"
       transform="matrix(0.35277776,0,0,-0.35277778,111.04343,40.070606)">
      <path
         d="m 0,0 0.326,0.907 0.827,0.488 0.953,-0.156 9.893,-6.041 9.368,-6.828 8.779,-7.572 8.13,-8.263 7.427,-8.901 6.676,-9.479 5.879,-9.989 5.043,-10.44 4.172,-10.817 3.274,-11.12 2.356,-11.35 1.419,-11.506 0.474,-11.582 -0.226,-8.019 -0.009,-0.117 -1.032,-10.766 -1.851,-10.658 -2.656,-10.485 -3.45,-10.25 -4.22,-9.958 -4.97,-9.61 -5.686,-9.202 -6.239,-8.571 -6.863,-8.082 -6.809,-6.943 -7.267,-6.457 -0.995,-0.323 -0.945,0.443 -0.384,0.972 0.079,0.462 5.059,16.101 4.164,16.356 3.251,16.563 2.33,16.718 1.401,16.819 0.468,16.871 -0.17,4.853 -0.51,4.825 -0.766,4.402 -2.01,7.52 -2.837,7.246 -3.634,6.885 -4.382,6.432 -5.074,5.898 -5.706,5.293 -6.265,4.62 -1.576,1.001 -0.493,0.516 -0.179,0.691 0.221,0.76 2.882,5.185 2.243,5.488 1.463,5.218 0.884,5.349 0.295,5.412 -0.351,7.452 -1.049,7.387 -1.74,7.254 -2.413,7.058 -3.067,6.801 -3.694,6.482 z"
         style="fill:#ffffff;fill-opacity:1;fill-rule:evenodd;stroke:none"
         id="path6824" />
    </g>
  </g>
</svg>
