<?xml version="1.0" encoding="UTF-8" standalone="no"?>
<svg
   width="24.000004"
   height="24"
   version="1.1"
   id="svg9"
   sodipodi:docname="instagram.svg"
   inkscape:export-filename="instagramrs.svg"
   inkscape:export-xdpi="96"
   inkscape:export-ydpi="96"
   inkscape:version="1.3 (0e150ed6c4, 2023-07-21)"
   xmlns:inkscape="http://www.inkscape.org/namespaces/inkscape"
   xmlns:sodipodi="http://sodipodi.sourceforge.net/DTD/sodipodi-0.dtd"
   xmlns:xlink="http://www.w3.org/1999/xlink"
   xmlns="http://www.w3.org/2000/svg"
   xmlns:svg="http://www.w3.org/2000/svg">
  <sodipodi:namedview
     id="namedview9"
     pagecolor="#ffffff"
     bordercolor="#000000"
     borderopacity="0.25"
     inkscape:showpageshadow="2"
     inkscape:pageopacity="0.0"
     inkscape:pagecheckerboard="0"
     inkscape:deskcolor="#d1d1d1"
     inkscape:zoom="33.541667"
     inkscape:cx="12.014907"
     inkscape:cy="12"
     inkscape:window-width="1920"
     inkscape:window-height="1011"
     inkscape:window-x="0"
     inkscape:window-y="0"
     inkscape:window-maximized="1"
     inkscape:current-layer="svg9" />
  <defs
     id="defs7">
    <linearGradient
       id="b">
      <stop
         offset="0"
         stop-color="#3771c8"
         id="stop1" />
      <stop
         stop-color="#3771c8"
         offset=".128"
         id="stop2" />
      <stop
         offset="1"
         stop-color="#60f"
         stop-opacity="0"
         id="stop3" />
    </linearGradient>
    <linearGradient
       id="a">
      <stop
         offset="0"
         stop-color="#fd5"
         id="stop4" />
      <stop
         offset=".1"
         stop-color="#fd5"
         id="stop5" />
      <stop
         offset=".5"
         stop-color="#ff543e"
         id="stop6" />
      <stop
         offset="1"
         stop-color="#c837ab"
         id="stop7" />
    </linearGradient>
    <radialGradient
       id="c"
       cx="158.429"
       cy="578.08801"
       r="65"
       xlink:href="#a"
       gradientUnits="userSpaceOnUse"
       gradientTransform="matrix(0,-0.36593495,0.34034826,0,-190.37623,83.823211)"
       fx="158.429"
       fy="578.08801" />
    <radialGradient
       id="d"
       cx="147.694"
       cy="473.45499"
       r="65"
       xlink:href="#b"
       gradientUnits="userSpaceOnUse"
       gradientTransform="matrix(0.03210596,0.16039264,-0.66113098,0.13241366,304.25378,-84.65202)"
       fx="147.694"
       fy="473.45499" />
  </defs>
  <path
     fill="url(#c)"
     d="M 12.003916,0 C 6.9940276,0 5.5288263,0.0051697 5.2440184,0.0288024 4.2159043,0.1142866 3.5761477,0.276208 2.8791712,0.6233142 2.3420415,0.8901061 1.9184289,1.199363 1.5003537,1.6328766 0.7389585,2.4234665 0.277507,3.3961026 0.1104614,4.5522619 0.0292456,5.1135402 0.0056196,5.2280113 8.2050392e-4,8.0949616 c -0.001846004,0.9556504 0,2.2133564 0,3.9003304 0,5.007192 0.005529996,6.471316 0.0295319961,6.755647 0.083061,1.000701 0.2399549,1.630293 0.5722001,2.318966 0.6349574,1.318266 1.8476522,2.307887 3.2763065,2.677149 0.4946765,0.127396 1.0410353,0.197556 1.7424416,0.230789 C 5.9184756,23.99077 8.9474441,24 11.978258,24 c 3.030815,0 6.061628,-0.0037 6.351421,-0.01846 0.812154,-0.03822 1.283758,-0.101548 1.805198,-0.236328 1.437883,-0.371108 2.628428,-1.34596 3.276306,-2.682688 0.325785,-0.672057 0.490985,-1.325651 0.56574,-2.2741 0.01624,-0.206787 0.02308,-3.503743 0.02308,-6.796267 0,-3.2930789 -0.0074,-6.583942 -0.02363,-6.7907287 C 23.9007,4.2376507 23.735496,3.5895959 23.39919,2.9046148 23.123239,2.3438906 22.816835,1.9251474 22.371996,1.4969882 21.578115,0.738524 20.60722,0.2769465 19.450269,0.11004 18.889697,0.0289871 18.778026,0.0049851 15.909643,0 Z"
     id="path7"
     style="fill:url(#c);stroke-width:0.184606" />
  <path
     fill="url(#d)"
     d="M 12.003916,0 C 6.9940276,0 5.5288263,0.0051697 5.2440184,0.0288024 4.2159043,0.1142866 3.5761477,0.276208 2.8791712,0.6233142 2.3420415,0.8901061 1.9184289,1.199363 1.5003537,1.6328766 0.7389585,2.4234665 0.277507,3.3961026 0.1104614,4.5522619 0.0292456,5.1135402 0.0056196,5.2280113 8.2050392e-4,8.0949616 c -0.001846004,0.9556504 0,2.2133564 0,3.9003304 0,5.007192 0.005529996,6.471316 0.0295319961,6.755647 0.083061,1.000701 0.2399549,1.630293 0.5722001,2.318966 0.6349574,1.318266 1.8476522,2.307887 3.2763065,2.677149 0.4946765,0.127396 1.0410353,0.197556 1.7424416,0.230789 C 5.9184756,23.99077 8.9474441,24 11.978258,24 c 3.030815,0 6.061628,-0.0037 6.351421,-0.01846 0.812154,-0.03822 1.283758,-0.101548 1.805198,-0.236328 1.437883,-0.371108 2.628428,-1.34596 3.276306,-2.682688 0.325785,-0.672057 0.490985,-1.325651 0.56574,-2.2741 0.01624,-0.206787 0.02308,-3.503743 0.02308,-6.796267 0,-3.2930789 -0.0074,-6.583942 -0.02363,-6.7907287 C 23.9007,4.2376507 23.735496,3.5895959 23.39919,2.9046148 23.123239,2.3438906 22.816835,1.9251474 22.371996,1.4969882 21.578115,0.738524 20.60722,0.2769465 19.450269,0.11004 18.889697,0.0289871 18.778026,0.0049851 15.909643,0 Z"
     id="path8"
     style="fill:#000000;stroke-width:0.184606" />
  <path
     fill="#ffffff"
     d="m 11.998379,3.138727 c -2.4061944,0 -2.7081684,0.010524 -3.6532211,0.053543 C 7.4019508,3.2354737 6.7581335,3.3848401 6.1947934,3.6039971 5.6120723,3.8303547 5.1177653,4.1331495 4.6253041,4.6259297 4.1324738,5.1185252 3.8297615,5.612967 3.6027273,6.1956624 3.3830763,6.7593409 3.233566,7.4035184 3.1911125,8.3466136 3.1488435,9.291924 3.1377685,9.594165 3.1377685,12.001015 c 0,2.406849 0.010705,2.707983 0.053528,3.653293 0.043377,0.943465 0.1927022,1.587458 0.4116148,2.150952 0.2264805,0.58288 0.5291928,1.077322 1.0218385,1.569917 0.4922767,0.492965 0.9865836,0.796498 1.5689356,1.022856 0.5637093,0.219157 1.2077112,0.368523 2.1507337,0.411727 0.9450525,0.04302 1.2468415,0.05354 3.6528509,0.05354 2.406378,0 2.707429,-0.01053 3.652482,-0.05354 0.943208,-0.0432 1.587763,-0.19257 2.151472,-0.411727 0.582536,-0.226358 1.076105,-0.529891 1.568381,-1.022856 0.492832,-0.492595 0.795544,-0.987037 1.022578,-1.569732 0.217805,-0.563679 0.367315,-1.207857 0.411614,-2.150952 0.04246,-0.945311 0.05353,-1.246629 0.05353,-3.653478 0,-2.40685 -0.01108,-2.708906 -0.05353,-3.6542168 C 20.759502,7.4033338 20.609989,6.7593409 20.392184,6.1958471 20.16515,5.612967 19.862438,5.1185252 19.369606,4.6259297 18.876776,4.1329649 18.383946,3.8301701 17.800672,3.6039971 17.235855,3.3848401 16.591668,3.2354737 15.648461,3.1922699 14.703408,3.149251 14.402541,3.138727 11.99561,3.138727 Z m -0.794804,1.5970582 c 0.235894,-3.693e-4 0.499106,0 0.794804,0 2.365585,0 2.645963,0.00849 3.580126,0.050958 0.863837,0.039511 1.332672,0.1838925 1.644983,0.305195 0.41346,0.160629 0.708236,0.3526453 1.018147,0.6628253 0.310094,0.3101801 0.502058,0.6055897 0.663013,1.0191632 0.121269,0.3120264 0.265797,0.7809891 0.305112,1.6450621 0.04246,0.9342332 0.05168,1.2148722 0.05168,3.5799952 0,2.365123 -0.0092,2.645762 -0.05168,3.579996 -0.0395,0.864073 -0.183843,1.333035 -0.305112,1.645061 -0.160585,0.413574 -0.352919,0.70806 -0.663013,1.018056 -0.310096,0.31018 -0.604502,0.502196 -1.018147,0.662825 -0.311942,0.121856 -0.781146,0.265869 -1.644983,0.30538 -0.933979,0.04247 -1.214541,0.0517 -3.580126,0.0517 -2.3657714,0 -2.6461494,-0.0092 -3.5801271,-0.0517 C 7.5544144,19.170421 7.0855795,19.02604 6.7730845,18.904737 6.3596239,18.744109 6.0642949,18.552092 5.7541993,18.241912 5.4441039,17.931732 5.25214,17.637061 5.0911856,17.223303 4.9699161,16.911277 4.8253895,16.442314 4.7860738,15.578241 c -0.042453,-0.934233 -0.050944,-1.214872 -0.050944,-3.581472 0,-2.366601 0.00849,-2.645763 0.050944,-3.5799957 C 4.8255743,7.5527003 4.9699161,7.0837376 5.0911856,6.7713419 5.2517708,6.3577685 5.4441039,6.0623588 5.7541993,5.7521788 6.0642949,5.4419987 6.3596239,5.2499825 6.7730845,5.0889842 7.085395,4.9671278 7.5544144,4.8231156 8.4182519,4.7834199 9.2355746,4.7464937 9.5523156,4.7354159 11.203575,4.7335696 Z m 5.524129,1.471509 c -0.586966,0 -1.063185,0.4757941 -1.063185,1.0631053 0,0.5871266 0.476219,1.0634746 1.063185,1.0634746 0.586967,0 1.063184,-0.476348 1.063184,-1.0634746 0,-0.5871266 -0.476217,-1.0634746 -1.063184,-1.0634746 z m -4.729325,1.2425666 c -2.5126974,0 -4.5499139,2.0377722 -4.5499139,4.5511542 0,2.513381 2.0372165,4.550231 4.5499139,4.550231 2.512696,0 4.549174,-2.03685 4.549174,-4.550231 0,-2.513382 -2.036663,-4.5511542 -4.549359,-4.5511542 z m 0,1.5970582 c 1.630955,0 2.95329,1.322512 2.95329,2.954096 0,1.631399 -1.322335,2.954096 -2.95329,2.954096 -1.63114,0 -2.9532904,-1.322697 -2.9532904,-2.954096 0,-1.631584 1.3221504,-2.954096 2.9532904,-2.954096 z"
     id="path9"
     style="stroke-width:0.184606" />
</svg>
